<?xml version="1.0" standalone="no"?>
<!DOCTYPE svg PUBLIC "-//W3C//DTD SVG 20010904//EN"
 "http://www.w3.org/TR/2001/REC-SVG-20010904/DTD/svg10.dtd">
<svg version="1.0" xmlns="http://www.w3.org/2000/svg"
 width="81.000000pt" height="81.000000pt" viewBox="0 0 81.000000 81.000000"
 preserveAspectRatio="xMidYMid meet">
<metadata>
Created by potrace 1.14, written by Peter Selinger 2001-2017
</metadata>
<g transform="translate(0.000000,81.000000) scale(0.100000,-0.100000)"
fill="#000000" stroke="none">
<path d="M145 675 c-48 -17 -103 -74 -111 -115 -4 -16 -12 -31 -20 -34 -8 -3
-14 -10 -14 -17 0 -6 7 -9 15 -5 9 3 23 -6 37 -25 46 -62 232 -152 360 -174
134 -24 162 -18 160 32 -1 45 -41 141 -74 179 -17 19 -29 37 -26 39 8 8 105
-43 142 -75 43 -38 96 -115 128 -186 17 -38 22 -68 22 -139 1 -50 -2 -105 -6
-122 -6 -25 -4 -33 7 -33 19 0 28 71 23 178 -3 73 -9 98 -36 152 -69 140 -147
212 -270 250 -35 11 -76 29 -91 39 -74 53 -185 78 -246 56z m189 -54 c90 -44
165 -127 197 -221 13 -38 20 -72 16 -76 -4 -4 -25 -7 -47 -6 -158 6 -421 126
-445 203 -9 29 40 108 78 125 46 21 124 11 201 -25z"/>
<path d="M636 281 c-4 -5 -2 -12 3 -15 5 -4 12 -2 15 3 4 5 2 12 -3 15 -5 4
-12 2 -15 -3z"/>
<path d="M53 231 c-69 -31 -38 -133 55 -181 50 -25 136 -50 145 -41 5 5 -7 14
-30 21 -111 36 -187 99 -181 149 3 25 5 26 88 29 64 2 108 -3 180 -22 52 -13
97 -22 99 -20 34 31 -295 91 -356 65z"/>
</g>
</svg>
